<?xml version="1.0" encoding="UTF-8" standalone="no"?>
<!DOCTYPE svg PUBLIC "-//W3C//DTD SVG 1.1//EN"
 "http://www.w3.org/Graphics/SVG/1.1/DTD/svg11.dtd">
<!-- Generated by graphviz version 2.40.1 (20161225.0304)
 -->
<!-- Title: dependencies Pages: 1 -->
<svg width="504pt" height="284pt"
 viewBox="0.00 0.00 504.00 284.00" xmlns="http://www.w3.org/2000/svg" xmlns:xlink="http://www.w3.org/1999/xlink">
<g id="graph0" class="graph" transform="scale(1 1) rotate(0) translate(4 280)">
<title>dependencies</title>
<polygon fill="#ffffff" stroke="transparent" points="-4,4 -4,-280 500,-280 500,4 -4,4"/>
<text text-anchor="start" x="227.0091" y="-42.4" font-family="sans-serif" font-weight="bold" font-size="14.00" fill="#000000">Legend</text>
<polygon fill="#ffffb3" stroke="transparent" points="14,-10 14,-30 34,-30 34,-10 14,-10"/>
<text text-anchor="start" x="37.629" y="-15.4" font-family="sans-serif" font-size="14.00" fill="#000000"> &#160;Declarations</text>
<polygon fill="#8dd3c7" stroke="transparent" points="127,-10 127,-30 147,-30 147,-10 127,-10"/>
<text text-anchor="start" x="150.7251" y="-15.4" font-family="sans-serif" font-size="14.00" fill="#000000"> &#160;Module</text>
<polygon fill="#80b1d3" stroke="transparent" points="213,-10 213,-30 233,-30 233,-10 213,-10"/>
<text text-anchor="start" x="236.7812" y="-15.4" font-family="sans-serif" font-size="14.00" fill="#000000"> &#160;Bootstrap</text>
<polygon fill="#fdb462" stroke="transparent" points="310,-10 310,-30 330,-30 330,-10 310,-10"/>
<text text-anchor="start" x="333.6732" y="-15.4" font-family="sans-serif" font-size="14.00" fill="#000000"> &#160;Providers</text>
<polygon fill="#fb8072" stroke="transparent" points="406,-10 406,-30 426,-30 426,-10 406,-10"/>
<text text-anchor="start" x="429.7258" y="-15.4" font-family="sans-serif" font-size="14.00" fill="#000000"> &#160;Exports</text>
<g id="clust1" class="cluster">
<title>cluster_AppElectronModule</title>
<polygon fill="none" stroke="#000000" stroke-dasharray="1,5" points="81,-70 81,-268 415,-268 415,-70 81,-70"/>
</g>
<g id="clust3" class="cluster">
<title>cluster_AppElectronModule_imports</title>
<polygon fill="none" stroke="#000000" points="89,-78 89,-130 407,-130 407,-78 89,-78"/>
</g>
<g id="clust5" class="cluster">
<title>cluster_AppElectronModule_bootstrap</title>
<polygon fill="none" stroke="#000000" points="207,-208 207,-260 331,-260 331,-208 207,-208"/>
</g>
<!-- AppModule -->
<g id="node1" class="node">
<title>AppModule</title>
<polygon fill="#8dd3c7" stroke="#000000" points="398.6571,-122 395.6571,-126 374.6571,-126 371.6571,-122 315.3429,-122 315.3429,-86 398.6571,-86 398.6571,-122"/>
<text text-anchor="middle" x="357" y="-99.8" font-family="Times,serif" font-size="14.00" fill="#000000">AppModule</text>
</g>
<!-- AppElectronModule -->
<g id="node3" class="node">
<title>AppElectronModule</title>
<polygon fill="#8dd3c7" stroke="#000000" points="334.58,-187 331.58,-191 310.58,-191 307.58,-187 203.42,-187 203.42,-151 334.58,-151 334.58,-187"/>
<text text-anchor="middle" x="269" y="-164.8" font-family="Times,serif" font-size="14.00" fill="#000000">AppElectronModule</text>
</g>
<!-- AppModule&#45;&gt;AppElectronModule -->
<g id="edge1" class="edge">
<title>AppModule&#45;&gt;AppElectronModule</title>
<path fill="none" stroke="#000000" d="M324.8559,-122.1061C324.8559,-122.1061 324.8559,-140.991 324.8559,-140.991"/>
<polygon fill="#000000" stroke="#000000" points="321.356,-140.9909 324.8559,-150.991 328.356,-140.991 321.356,-140.9909"/>
</g>
<!-- OhMyRepoElectronCoreModule -->
<g id="node2" class="node">
<title>OhMyRepoElectronCoreModule</title>
<polygon fill="#8dd3c7" stroke="#000000" points="297.2878,-122 294.2878,-126 273.2878,-126 270.2878,-122 96.7122,-122 96.7122,-86 297.2878,-86 297.2878,-122"/>
<text text-anchor="middle" x="197" y="-99.8" font-family="Times,serif" font-size="14.00" fill="#000000">OhMyRepoElectronCoreModule</text>
</g>
<!-- OhMyRepoElectronCoreModule&#45;&gt;AppElectronModule -->
<g id="edge2" class="edge">
<title>OhMyRepoElectronCoreModule&#45;&gt;AppElectronModule</title>
<path fill="none" stroke="#000000" d="M250.3019,-122.1061C250.3019,-122.1061 250.3019,-140.991 250.3019,-140.991"/>
<polygon fill="#000000" stroke="#000000" points="246.802,-140.9909 250.3019,-150.991 253.802,-140.991 246.802,-140.9909"/>
</g>
<!-- AppComponent  -->
<g id="node4" class="node">
<title>AppComponent </title>
<polygon fill="#80b1d3" stroke="#000000" points="323.439,-252 214.561,-252 214.561,-216 323.439,-216 323.439,-252"/>
<text text-anchor="middle" x="269" y="-229.8" font-family="Times,serif" font-size="14.00" fill="#000000">AppComponent </text>
</g>
<!-- AppElectronModule&#45;&gt;AppComponent  -->
<g id="edge3" class="edge">
<title>AppElectronModule&#45;&gt;AppComponent </title>
<path fill="none" stroke="#000000" stroke-dasharray="1,5" d="M269,-187.1061C269,-187.1061 269,-205.991 269,-205.991"/>
<polygon fill="#000000" stroke="#000000" points="265.5001,-205.9909 269,-215.991 272.5001,-205.991 265.5001,-205.9909"/>
</g>
</g>
</svg>
