<?xml version="1.0" encoding="UTF-8" standalone="no"?>
<!DOCTYPE svg PUBLIC "-//W3C//DTD SVG 1.1//EN"
 "http://www.w3.org/Graphics/SVG/1.1/DTD/svg11.dtd">
<!-- Generated by graphviz version 2.40.1 (20161225.0304)
 -->
<!-- Title: dependencies Pages: 1 -->
<svg width="504pt" height="211pt"
 viewBox="0.00 0.00 504.00 211.00" xmlns="http://www.w3.org/2000/svg" xmlns:xlink="http://www.w3.org/1999/xlink">
<g id="graph0" class="graph" transform="scale(1 1) rotate(0) translate(4 207)">
<title>dependencies</title>
<polygon fill="#ffffff" stroke="transparent" points="-4,4 -4,-207 500,-207 500,4 -4,4"/>
<text text-anchor="start" x="227.0091" y="-42.4" font-family="sans-serif" font-weight="bold" font-size="14.00" fill="#000000">Legend</text>
<polygon fill="#ffffb3" stroke="transparent" points="14,-10 14,-30 34,-30 34,-10 14,-10"/>
<text text-anchor="start" x="37.629" y="-15.4" font-family="sans-serif" font-size="14.00" fill="#000000"> &#160;Declarations</text>
<polygon fill="#8dd3c7" stroke="transparent" points="127,-10 127,-30 147,-30 147,-10 127,-10"/>
<text text-anchor="start" x="150.7251" y="-15.4" font-family="sans-serif" font-size="14.00" fill="#000000"> &#160;Module</text>
<polygon fill="#80b1d3" stroke="transparent" points="213,-10 213,-30 233,-30 233,-10 213,-10"/>
<text text-anchor="start" x="236.7812" y="-15.4" font-family="sans-serif" font-size="14.00" fill="#000000"> &#160;Bootstrap</text>
<polygon fill="#fdb462" stroke="transparent" points="310,-10 310,-30 330,-30 330,-10 310,-10"/>
<text text-anchor="start" x="333.6732" y="-15.4" font-family="sans-serif" font-size="14.00" fill="#000000"> &#160;Providers</text>
<polygon fill="#fb8072" stroke="transparent" points="406,-10 406,-30 426,-30 426,-10 406,-10"/>
<text text-anchor="start" x="429.7258" y="-15.4" font-family="sans-serif" font-size="14.00" fill="#000000"> &#160;Exports</text>
<g id="clust1" class="cluster">
<title>cluster_OhMyRepoCoreModule</title>
<polygon fill="none" stroke="#000000" stroke-dasharray="1,5" points="39,-70 39,-195 457,-195 457,-70 39,-70"/>
</g>
<g id="clust3" class="cluster">
<title>cluster_OhMyRepoCoreModule_imports</title>
<polygon fill="none" stroke="#000000" points="347,-78 347,-130 449,-130 449,-78 347,-78"/>
</g>
<g id="clust6" class="cluster">
<title>cluster_OhMyRepoCoreModule_providers</title>
<polygon fill="none" stroke="#000000" points="47,-78 47,-130 339,-130 339,-78 47,-78"/>
</g>
<!-- CoreModule -->
<g id="node1" class="node">
<title>CoreModule</title>
<polygon fill="#8dd3c7" stroke="#000000" points="441.2619,-122 438.2619,-126 417.2619,-126 414.2619,-122 354.7381,-122 354.7381,-86 441.2619,-86 441.2619,-122"/>
<text text-anchor="middle" x="398" y="-99.8" font-family="Times,serif" font-size="14.00" fill="#000000">CoreModule</text>
</g>
<!-- OhMyRepoCoreModule -->
<g id="node2" class="node">
<title>OhMyRepoCoreModule</title>
<polygon fill="#8dd3c7" stroke="#000000" points="351.3641,-187 348.3641,-191 327.3641,-191 324.3641,-187 198.6359,-187 198.6359,-151 351.3641,-151 351.3641,-187"/>
<text text-anchor="middle" x="275" y="-164.8" font-family="Times,serif" font-size="14.00" fill="#000000">OhMyRepoCoreModule</text>
</g>
<!-- CoreModule&#45;&gt;OhMyRepoCoreModule -->
<g id="edge1" class="edge">
<title>CoreModule&#45;&gt;OhMyRepoCoreModule</title>
<path fill="none" stroke="#000000" d="M354.5007,-104C346.6976,-104 340.9901,-104 340.9901,-104 340.9901,-104 340.9901,-140.8939 340.9901,-140.8939"/>
<polygon fill="#000000" stroke="#000000" points="337.4902,-140.8938 340.9901,-150.8939 344.4902,-140.8939 337.4902,-140.8938"/>
</g>
<!-- LogService -->
<g id="node3" class="node">
<title>LogService</title>
<ellipse fill="#fdb462" stroke="#000000" cx="275" cy="-104" rx="55.5966" ry="18"/>
<text text-anchor="middle" x="275" y="-99.8" font-family="Times,serif" font-size="14.00" fill="#000000">LogService</text>
</g>
<!-- LogService&#45;&gt;OhMyRepoCoreModule -->
<g id="edge2" class="edge">
<title>LogService&#45;&gt;OhMyRepoCoreModule</title>
<path fill="none" stroke="#000000" d="M275,-122.1061C275,-122.1061 275,-140.991 275,-140.991"/>
<polygon fill="#000000" stroke="#000000" points="271.5001,-140.9909 275,-150.991 278.5001,-140.991 271.5001,-140.9909"/>
</g>
<!-- WindowService -->
<g id="node4" class="node">
<title>WindowService</title>
<ellipse fill="#fdb462" stroke="#000000" cx="128" cy="-104" rx="73.4959" ry="18"/>
<text text-anchor="middle" x="128" y="-99.8" font-family="Times,serif" font-size="14.00" fill="#000000">WindowService</text>
</g>
<!-- WindowService&#45;&gt;OhMyRepoCoreModule -->
<g id="edge3" class="edge">
<title>WindowService&#45;&gt;OhMyRepoCoreModule</title>
<path fill="none" stroke="#000000" d="M201.5368,-104C206.9519,-104 210.3496,-104 210.3496,-104 210.3496,-104 210.3496,-140.8939 210.3496,-140.8939"/>
<polygon fill="#000000" stroke="#000000" points="206.8497,-140.8938 210.3496,-150.8939 213.8497,-140.8939 206.8497,-140.8938"/>
</g>
</g>
</svg>
